<?xml version="1.0" encoding="UTF-8" standalone="no"?>
<!-- Created with Inkscape (http://www.inkscape.org/) -->

<svg
   width="210mm"
   height="297mm"
   viewBox="0 0 210 297"
   version="1.1"
   id="svg9507"
   inkscape:export-filename="logo.jpg"
   inkscape:export-xdpi="96"
   inkscape:export-ydpi="96"
   sodipodi:docname="logo.svg"
   inkscape:version="1.2.1 (9c6d41e410, 2022-07-14)"
   xmlns:inkscape="http://www.inkscape.org/namespaces/inkscape"
   xmlns:sodipodi="http://sodipodi.sourceforge.net/DTD/sodipodi-0.dtd"
   xmlns="http://www.w3.org/2000/svg"
   xmlns:svg="http://www.w3.org/2000/svg">
  <sodipodi:namedview
     id="namedview9509"
     pagecolor="#505050"
     bordercolor="#ffffff"
     borderopacity="1"
     inkscape:showpageshadow="0"
     inkscape:pageopacity="0"
     inkscape:pagecheckerboard="1"
     inkscape:deskcolor="#505050"
     inkscape:document-units="mm"
     showgrid="false"
     inkscape:zoom="0.76969697"
     inkscape:cx="451.47638"
     inkscape:cy="374.82283"
     inkscape:window-width="1920"
     inkscape:window-height="1051"
     inkscape:window-x="-9"
     inkscape:window-y="-9"
     inkscape:window-maximized="1"
     inkscape:current-layer="layer1" />
  <defs
     id="defs9504" />
  <g
     inkscape:label="Layer 1"
     inkscape:groupmode="layer"
     id="layer1">
    <rect
       style="fill:#ffffff;fill-opacity:1;stroke:none;stroke-width:1.62542"
       id="rect13976-1-0"
       width="187.53357"
       height="117.10203"
       x="11.233215"
       y="44.447929" />
    <g
       id="g13922-1-0"
       style="display:inline"
       transform="matrix(3.0071578,0,0,3.5819084,-54.139764,-280.30344)">
      <path
         style="fill:#ff8a3c;fill-opacity:1;stroke:none;stroke-width:0.286441px;stroke-linecap:butt;stroke-linejoin:miter;stroke-opacity:1"
         d="m 30.674853,108.00011 c 0,0 -10.285923,-7.48287 0.541364,-10.360903 10.827289,-2.87803 30.677315,-0.383736 32.481862,3.261763 1.804547,3.6455 2.887277,6.33166 -0.360909,7.09914 -3.248186,0.76747 -4.691823,-4.79671 -9.022741,-2.87803 -4.330914,1.91869 -4.150458,12.47146 -8.842282,10.93651 -4.691827,-1.53495 -14.797294,-8.05848 -14.797294,-8.05848 z"
         id="path13037-09-2" />
      <path
         style="opacity:0.857724;fill:#101670;fill-opacity:1;stroke:none;stroke-width:0.286441px;stroke-linecap:butt;stroke-linejoin:miter;stroke-opacity:1"
         d="m 26.154356,110.59874 c 0,0 -10.285923,-7.48288 0.541365,-10.3609 10.827288,-2.878034 30.677314,-0.383741 32.481861,3.26176 1.804547,3.6455 2.887277,6.33166 -0.360908,7.09914 -3.248187,0.76747 -4.691824,-4.79671 -9.022742,-2.87803 -4.330914,1.91869 -4.150458,12.47146 -8.842282,10.93651 -2.505831,-0.81979 -6.555883,-3.06256 -9.785889,-4.97448 -2.817737,-1.66789 -5.011405,-3.084 -5.011405,-3.084 z"
         id="path13037-0-1-2"
         sodipodi:nodetypes="cssssssc" />
      <ellipse
         style="opacity:0.383966;fill:#e2ec7c;fill-opacity:1;stroke:none;stroke-width:0.541306"
         id="path13839-83-9"
         cx="35.357552"
         cy="110.59874"
         rx="9.2031946"
         ry="8.3462849" />
      <ellipse
         style="opacity:0.383966;fill:#e2ec7c;fill-opacity:1;stroke:none;stroke-width:0.541306"
         id="path13839-8-9-3"
         cx="54.494884"
         cy="100.90098"
         rx="9.2031946"
         ry="8.3462849" />
      <path
         style="opacity:0.520325;fill:#ff8a3c;fill-opacity:1;stroke:none;stroke-width:0.286441px;stroke-linecap:butt;stroke-linejoin:miter;stroke-opacity:1"
         d="m 48.446509,108.0001 c 0,0 -10.285918,-7.48287 0.541365,-10.3609 3.041894,-0.808575 3.992408,-2.877898 7.748726,-3.166925 1.854449,-0.142689 6.084764,3.542674 8.685308,3.987654 2.011866,0.344251 2.448949,-2.570943 3.824589,-2.397996 6.064567,0.762444 11.369598,3.11453 12.223238,4.839037 1.804543,3.6455 2.887271,6.33165 -0.360908,7.09913 -3.248187,0.76747 -4.691824,-4.7967 -9.022742,-2.87802 -4.330914,1.91868 -4.150458,12.47145 -8.842282,10.9365 -4.691826,-1.53495 -14.797294,-8.05848 -14.797294,-8.05848 z"
         id="path13037-5-7-5"
         sodipodi:nodetypes="cssssssssc" />
      <path
         style="opacity:0.670732;fill:#101670;fill-opacity:1;stroke:none;stroke-width:0.286441px;stroke-linecap:butt;stroke-linejoin:miter;stroke-opacity:1"
         d="m 45.735504,111.37815 c 0,0 -10.285923,-7.48289 0.541365,-10.3609 10.827288,-2.878042 30.677314,-0.38374 32.481861,3.26176 1.804547,3.6455 2.887277,6.33166 -0.360908,7.09914 -3.248186,0.76747 -5.977415,-6.03966 -9.022742,-2.87803 -1.182924,1.2281 5.194896,5.31871 4.413838,7.08851 -0.368632,0.83528 -3.279245,2.43061 -4.239471,3.01589 -2.065629,1.25907 -3.920988,-1.00398 -5.847259,-1.15903 -1.040729,-0.0838 -2.321619,2.26849 -3.16939,1.99114 -4.691826,-1.53495 -14.797294,-8.05848 -14.797294,-8.05848 z"
         id="path13037-0-0-2-0"
         sodipodi:nodetypes="cssssssssc" />
      <ellipse
         style="opacity:0.451477;fill:#e2ec7c;fill-opacity:1;stroke:none;stroke-width:0.541306"
         id="path13839-84-3-5"
         cx="53.129204"
         cy="110.59874"
         rx="9.2031946"
         ry="8.3462849" />
      <path
         style="fill:#e2ed7c;fill-opacity:0.45098;stroke:none;stroke-width:0.203171px;stroke-linecap:butt;stroke-linejoin:miter;stroke-opacity:1"
         d="m 59.542994,98.66448 c 8.29578,-3.821056 12.182367,-5.895511 12.738157,-0.508489 0.555792,5.387019 6.769217,10.704249 -2.984469,8.230209 -9.753688,-2.47404 -10.049399,-7.72172 -10.049399,-7.72172 h 0.295711"
         id="path8756" />
      <path
         style="display:inline;fill:#e2ed7c;fill-opacity:0.45098;stroke:none;stroke-width:0.203171px;stroke-linecap:butt;stroke-linejoin:miter;stroke-opacity:1"
         d="m 25.984859,99.966036 c 8.29578,-3.821056 12.182367,-5.895511 12.738157,-0.508489 0.555792,5.387023 6.769217,10.704253 -2.984469,8.230213 -9.753688,-2.47404 -10.049399,-7.721724 -10.049399,-7.721724 h 0.295711"
         id="path8756-9" />
    </g>
    <path
       style="fill:#ffffff;fill-opacity:1;stroke:none;stroke-width:0.851159px;stroke-linecap:butt;stroke-linejoin:miter;stroke-opacity:1"
       d="m 79.711627,70.104654 c 0,0 7.866205,14.539791 1.529802,23.040361 -6.336446,8.500635 3.698273,13.495065 3.698273,16.324665 0,2.82959 -5.53222,3.26489 -5.53222,3.26489 l 2.6e-5,8.28122 -2.6e-5,5e-5 c 0,0 0.802675,1.58738 0.304119,6.51974 -0.498523,4.93226 -15.352789,1.46617 -15.352789,1.46617 l 4.509325,20.02008 5.99914,9.20396 21.93781,-9.19071 -10.091511,-94.146041 z"
       id="path13904-2-4"
       sodipodi:nodetypes="csscccscccccc" />
    <path
       style="fill:#ffffff;fill-opacity:1;stroke:none;stroke-width:0.851159px;stroke-linecap:butt;stroke-linejoin:miter;stroke-opacity:1"
       d="m 109.4308,60.099058 c 0,0 -7.86617,14.539765 -1.52979,23.040358 1.53636,2.06112 2.11288,3.916136 2.09816,5.584083 -8.4e-4,0.09441 -0.0857,0.791762 -0.68016,0.883692 -0.55515,0.08571 -1.61113,-0.434839 -1.92078,-0.318233 -0.32394,0.121991 0.44485,0.368896 0.43412,0.457796 -0.0353,0.293488 2.02597,0.367307 1.95771,0.648645 -1.03774,4.277329 -5.5873,7.163574 -5.5873,9.068688 0,2.829593 5.53222,3.264893 5.53222,3.264893 l -2e-5,8.28122 2e-5,5e-5 c 0,0 -0.80268,1.58738 -0.30413,6.51972 0.49853,4.93228 15.3528,1.46616 15.3528,1.46616 l -4.50932,20.02011 -5.99915,9.20393 -17.470093,0.81491 L 83.710674,44.447931 Z"
       id="path13904-2-4-2"
       sodipodi:nodetypes="cssssssscccscccccc" />
  </g>
</svg>
